{
  "accessors": [
    {
      "bufferView": 2,
      "componentType": 5126,
      "count": 65532,
      "max": [
        1.4298806190490723,
        0.7038617730140686,
        3.1227734088897705
      ],
      "min": [
        -1.4242485761642456,
        -0.79820811748504639,
        -0.47060832381248474
      ],
      "type": "VEC3"
    },
    {
      "bufferView": 2,
      "byteOffset": 786384,
      "componentType": 5126,
      "count": 65532,
      "max": [
        0.99999475479125977,
        0.98186361789703369,
        0.99999856948852539
      ],
      "min": [
        -0.99991393089294434,
        -0.99999159574508667,
        -0.99996399879455566
      ],
      "type": "VEC3"
    },
    {
      "bufferView": 1,
      "componentType": 5126,
      "count": 65532,
      "max": [
        0.88963997364044189,
        0.58083999156951904
      ],
      "min": [
        0.0019499999471008778,
        0.064419999718666077
      ],
      "type": "VEC2"
    },
    {
      "bufferView": 0,
      "componentType": 5125,
      "count": 349449,
      "max": [
        65531
      ],
      "min": [
        0
      ],
      "type": "SCALAR"
    },
    {
      "bufferView": 2,
      "byteOffset": 1572768,
      "componentType": 5126,
      "count": 65532,
      "max": [
        1.4307231903076172,
        1.0086965560913086,
        3.1227726936340332
      ],
      "min": [
        -1.4322284460067749,
        -0.63133126497268677,
        -0.91161817312240601
      ],
      "type": "VEC3"
    },
    {
      "bufferView": 2,
      "byteOffset": 2359152,
      "componentType": 5126,
      "count": 65532,
      "max": [
        0.99999749660491943,
        0.99968266487121582,
        0.9999927282333374
      ],
      "min": [
        -0.99999904632568359,
        -0.99999159574508667,
        -0.9999992847442627
      ],
      "type": "VEC3"
    },
    {
      "bufferView": 1,
      "byteOffset": 524256,
      "componentType": 5126,
      "count": 65532,
      "max": [
        0.89717000722885132,
        0.51964002847671509
      ],
      "min": [
        0.040709998458623886,
        0.076970003545284271
      ],
      "type": "VEC2"
    },
    {
      "bufferView": 0,
      "byteOffset": 1397796,
      "componentType": 5125,
      "count": 341346,
      "max": [
        65531
      ],
      "min": [
        0
      ],
      "type": "SCALAR"
    },
    {
      "bufferView": 2,
      "byteOffset": 3145536,
      "componentType": 5126,
      "count": 65532,
      "max": [
        1.101719856262207,
        1.1124683618545532,
        2.9230673313140869
      ],
      "min": [
        -1.3754879236221313,
        -0.54010105133056641,
        -0.93737953901290894
      ],
      "type": "VEC3"
    },
    {
      "bufferView": 2,
      "byteOffset": 3931920,
      "componentType": 5126,
      "count": 65532,
      "max": [
        0.99982458353042603,
        0.99995821714401245,
        0.99964368343353271
      ],
      "min": [
        -0.99999362230300903,
        -0.99231481552124023,
        -0.9999995231628418
      ],
      "type": "VEC3"
    },
    {
      "bufferView": 1,
      "byteOffset": 1048512,
      "componentType": 5126,
      "count": 65532,
      "max": [
        0.86511999368667603,
        0.50755000114440918
      ],
      "min": [
        0.045719999819993973,
        0.069499999284744263
      ],
      "type": "VEC2"
    },
    {
      "bufferView": 0,
      "byteOffset": 2763180,
      "componentType": 5125,
      "count": 355077,
      "max": [
        65531
      ],
      "min": [
        0
      ],
      "type": "SCALAR"
    },
    {
      "bufferView": 2,
      "byteOffset": 4718304,
      "componentType": 5126,
      "count": 65532,
      "max": [
        1.4322284460067749,
        1.1124684810638428,
        3.119950532913208
      ],
      "min": [
        -1.4311823844909668,
        -0.30342715978622437,
        -0.93737947940826416
      ],
      "type": "VEC3"
    },
    {
      "bufferView": 2,
      "byteOffset": 5504688,
      "componentType": 5126,
      "count": 65532,
      "max": [
        0.99999755620956421,
        0.99995344877243042,
        0.99999105930328369
      ],
      "min": [
        -0.99999743700027466,
        -0.99898898601531982,
        -0.99999964237213135
      ],
      "type": "VEC3"
    },
    {
      "bufferView": 1,
      "byteOffset": 1572768,
      "componentType": 5126,
      "count": 65532,
      "max": [
        0.93569999933242798,
        0.46678999066352844
      ],
      "min": [
        0.0435900017619133,
        0.01030999980866909
      ],
      "type": "VEC2"
    },
    {
      "bufferView": 0,
      "byteOffset": 4183488,
      "componentType": 5125,
      "count": 345366,
      "max": [
        65531
      ],
      "min": [
        0
      ],
      "type": "SCALAR"
    },
    {
      "bufferView": 2,
      "byteOffset": 6291072,
      "componentType": 5126,
      "count": 65532,
      "max": [
        1.4105623960494995,
        1.108384370803833,
        3.0497462749481201
      ],
      "min": [
        -1.4111526012420654,
        -0.79234123229980469,
        -0.9317740797996521
      ],
      "type": "VEC3"
    },
    {
      "bufferView": 2,
      "byteOffset": 7077456,
      "componentType": 5126,
      "count": 65532,
      "max": [
        0.99963939189910889,
        0.99994641542434692,
        0.99943757057189941
      ],
      "min": [
        -0.99996662139892578,
        -0.99998033046722412,
        -0.9998059868812561
      ],
      "type": "VEC3"
    },
    {
      "bufferView": 1,
      "byteOffset": 2097024,
      "componentType": 5126,
      "count": 65532,
      "max": [
        0.99804002046585083,
        0.57978999614715576
      ],
      "min": [
        0.0091700004413723946,
        0.0019499999471008778
      ],
      "type": "VEC2"
    },
    {
      "bufferView": 0,
      "byteOffset": 5564952,
      "componentType": 5125,
      "count": 312741,
      "max": [
        65531
      ],
      "min": [
        0
      ],
      "type": "SCALAR"
    },
    {
      "bufferView": 2,
      "byteOffset": 7863840,
      "componentType": 5126,
      "count": 65532,
      "max": [
        1.4322251081466675,
        1.0640323162078857,
        3.1227734088897705
      ],
      "min": [
        -1.4320000410079956,
        -0.49265652894973755,
        -0.93628442287445068
      ],
      "type": "VEC3"
    },
    {
      "bufferView": 2,
      "byteOffset": 8650224,
      "componentType": 5126,
      "count": 65532,
      "max": [
        0.9999966025352478,
        0.99999451637268066,
        0.99999856948852539
      ],
      "min": [
        -0.99989348649978638,
        -0.99951434135437012,
        -0.99998807907104492
      ],
      "type": "VEC3"
    },
    {
      "bufferView": 1,
      "byteOffset": 2621280,
      "componentType": 5126,
      "count": 65532,
      "max": [
        0.95680999755859375,
        0.51520001888275146
      ],
      "min": [
        0.021740000694990158,
        0.024870000779628754
      ],
      "type": "VEC2"
    },
    {
      "bufferView": 0,
      "byteOffset": 6815916,
      "componentType": 5125,
      "count": 222207,
      "max": [
        65531
      ],
      "min": [
        0
      ],
      "type": "SCALAR"
    },
    {
      "bufferView": 2,
      "byteOffset": 9436608,
      "componentType": 5126,
      "count": 13165,
      "max": [
        1.401126503944397,
        1.1088520288467407,
        1.1432197093963623
      ],
      "min": [
        -1.4011572599411011,
        0.79217225313186646,
        -0.42861929535865784
      ],
      "type": "VEC3"
    },
    {
      "bufferView": 2,
      "byteOffset": 9594588,
      "componentType": 5126,
      "count": 13165,
      "max": [
        0.99920403957366943,
        0.99997586011886597,
        0.7734871506690979
      ],
      "min": [
        -0.9984777569770813,
        -0.047885753214359283,
        -0.78758686780929565
      ],
      "type": "VEC3"
    },
    {
      "bufferView": 1,
      "byteOffset": 3145536,
      "componentType": 5126,
      "count": 13165,
      "max": [
        0.62608999013900757,
        0.48781999945640564
      ],
      "min": [
        0.051839999854564667,
        0.0075699998997151852
      ],
      "type": "VEC2"
    },
    {
      "bufferView": 0,
      "byteOffset": 7704744,
      "componentType": 5125,
      "count": 38382,
      "max": [
        13164
      ],
      "min": [
        0
      ],
      "type": "SCALAR"
    }
  ],
  "asset": {
    "extras": {
      "author": "villeom (https://sketchfab.com/victorleonardoms)",
      "license": "CC-BY-4.0 (http://creativecommons.org/licenses/by/4.0/)",
      "source": "https://sketchfab.com/3d-models/sculpture-man-anatomy-b59fbe786f38439c843104338fcbee46",
      "title": "Sculpture - man anatomy"
    },
    "generator": "Sketchfab-8.0.0",
    "version": "2.0"
  },
  "bufferViews": [
    {
      "buffer": 0,
      "byteLength": 7858272,
      "byteOffset": 0,
      "name": "floatBufferViews",
      "target": 34963
    },
    {
      "buffer": 0,
      "byteLength": 3250856,
      "byteOffset": 7858272,
      "byteStride": 8,
      "name": "floatBufferViews",
      "target": 34962
    },
    {
      "buffer": 0,
      "byteLength": 9752568,
      "byteOffset": 11109128,
      "byteStride": 12,
      "name": "floatBufferViews",
      "target": 34962
    }
  ],
  "buffers": [
    {
      "byteLength": 20861696,
      "uri": "scene.bin"
    }
  ],
  "images": [
    {
      "uri": "textures/defaultMat_baseColor.jpeg"
    }
  ],
  "materials": [
    {
      "doubleSided": true,
      "name": "defaultMat",
      "pbrMetallicRoughness": {
        "baseColorFactor": [
          0.58098323170731703,
          0.58098323170731703,
          0.58098323170731703,
          1
        ],
        "baseColorTexture": {
          "index": 0,
          "texCoord": 0
        },
        "metallicFactor": 0,
        "roughnessFactor": 0.59999999999999998
      }
    }
  ],
  "meshes": [
    {
      "primitives": [
        {
          "attributes": {
            "NORMAL": 1,
            "POSITION": 0,
            "TEXCOORD_0": 2
          },
          "indices": 3,
          "material": 0,
          "mode": 4
        }
      ]
    },
    {
      "primitives": [
        {
          "attributes": {
            "NORMAL": 5,
            "POSITION": 4,
            "TEXCOORD_0": 6
          },
          "indices": 7,
          "material": 0,
          "mode": 4
        }
      ]
    },
    {
      "primitives": [
        {
          "attributes": {
            "NORMAL": 9,
            "POSITION": 8,
            "TEXCOORD_0": 10
          },
          "indices": 11,
          "material": 0,
          "mode": 4
        }
      ]
    },
    {
      "primitives": [
        {
          "attributes": {
            "NORMAL": 13,
            "POSITION": 12,
            "TEXCOORD_0": 14
          },
          "indices": 15,
          "material": 0,
          "mode": 4
        }
      ]
    },
    {
      "primitives": [
        {
          "attributes": {
            "NORMAL": 17,
            "POSITION": 16,
            "TEXCOORD_0": 18
          },
          "indices": 19,
          "material": 0,
          "mode": 4
        }
      ]
    },
    {
      "primitives": [
        {
          "attributes": {
            "NORMAL": 21,
            "POSITION": 20,
            "TEXCOORD_0": 22
          },
          "indices": 23,
          "material": 0,
          "mode": 4
        }
      ]
    },
    {
      "primitives": [
        {
          "attributes": {
            "NORMAL": 25,
            "POSITION": 24,
            "TEXCOORD_0": 26
          },
          "indices": 27,
          "material": 0,
          "mode": 4
        }
      ]
    }
  ],
  "nodes": [
    {
      "children": [
        1
      ],
      "name": "RootNode (gltf orientation matrix)",
      "rotation": [
        -0.70710678118654746,
        -0,
        -0,
        0.70710678118654757
      ]
    },
    {
      "children": [
        2
      ],
      "name": "RootNode (model correction matrix)"
    },
    {
      "children": [
        3,
        4,
        5,
        6,
        7,
        8,
        9
      ],
      "name": "ULTIMO.OBJ.cleaner.materialmerger.gles"
    },
    {
      "mesh": 0,
      "name": ""
    },
    {
      "mesh": 1,
      "name": ""
    },
    {
      "mesh": 2,
      "name": ""
    },
    {
      "mesh": 3,
      "name": ""
    },
    {
      "mesh": 4,
      "name": ""
    },
    {
      "mesh": 5,
      "name": ""
    },
    {
      "mesh": 6,
      "name": ""
    }
  ],
  "samplers": [
    {
      "magFilter": 9729,
      "minFilter": 9987,
      "wrapS": 10497,
      "wrapT": 10497
    }
  ],
  "scene": 0,
  "scenes": [
    {
      "name": "OSG_Scene",
      "nodes": [
        0
      ]
    }
  ],
  "textures": [
    {
      "sampler": 0,
      "source": 0
    }
  ]
}

